<svg version="1.1" xmlns="http://www.w3.org/2000/svg" xmlns:xlink="http://www.w3.org/1999/xlink" width="600" height="600" viewBox="0 0 600 600"><defs/><g><path fill="none" stroke="rgb(0,0,0)" paint-order="fill stroke markers" d=" M 478.5906131463539 317.519054823932 L 478.71150897200977 318.5012428045877 L 478.8270031373415 319.4840805978069 L 478.93709215147004 320.46753849673996 L 479.04177268689034 321.4515867757942 L 479.14104157957183 322.43619569153253 L 479.23489582905376 323.42133548357214 L 479.3233325985364 324.40697637548413 L 479.40634921496644 325.3930885756937 L 479.4839431691179 326.37964227838035 L 479.5561121156679 327.366607664379 L 479.6228538732677 328.3539549020811 L 479.68416642460835 329.34165414833666 L 479.7400479164821 330.32967554935567 L 479.790496659838 331.317989241611 L 479.8355111298332 332.30656535274085 L 479.87508996587883 333.29537400245164 L 479.9092319716814 334.2843853034211 L 479.93793611527866 335.2735693622019 L 479.961201529071 336.2628962801247 L 479.9790275098477 337.25233615420245 L 479.991413518808 338.2418590780337 L 479.9983591815774 339.231435142707 L 479.9998642882193 340.22103443770453 L 479.9959287932409 341.21062705180634 L 479.9865528155949 342.2001830739945 L 479.9717366386757 343.1896725943569 L 479.9514807103109 344.1790657049918 L 479.9257856427479 345.1683325009111 L 479.89465221263515 346.15744308094503 L 479.8580813609989 347.14636754864523 L 479.8160741932146 348.13507601318895 L 479.76863197897364 349.123538590282 L 479.7157561522447 350.11172540306256 L 479.6574483112308 351.0996065830037 L 479.5937102183206 352.08715227081655 L 479.5245438000354 353.0743326173527 L 479.449951146971 354.06111778450634 L 479.3699345137338 355.04747794611615 L 479.2844963188739 356.033383288867 L 479.1936391448107 357.0188040131908 L 479.0973657377557 358.0037103341674 L 478.9956790076292 358.9880724824247 L 478.88858202797223 359.9718607050387 L 478.7760780358541 360.9550452664325 L 478.6581704317739 361.9375964492752 L 478.5348627795583 362.9194845553803 L 478.4061588062534 363.90067990660305 L 478.2720624020126 364.8811528457377 L 478.13257761997824 365.86087373741367 L 477.98770867615985 366.8398129689917 L 477.8374599493065 367.81794095145847 L 477.68183598077405 368.7952281203212 L 477.52084147438836 369.77164493650133 L 477.354481296303 370.7471618872269 L 477.182760474852 371.72174948692526 L 477.00568420039815 372.69537827811376 L 476.82325782517574 373.6680188322903 L 476.63548686312913 374.6396417508228 L 476.44237698974604 375.610217665838 L 476.2439340418857 376.5797172411087 L 476.0401640176028 377.5481111729409 L 475.831073075966 378.5153701910591 L 475.6166675368719 379.4814650594915 L 475.39695388085363 380.44636657745315 L 475.17193874888574 381.41004558022894 L 474.94162894218266 382.37247294005516 L 474.70603142199354 383.3336195669994 L 474.4651533093918 384.2934564098404 L 474.2190018850599 385.2519544569459 L 473.96758458906925 386.20908473714934 L 473.71090902065527 387.1648183206259 L 473.44898293798775 388.1191263197667 L 473.18181425793637 389.07197989005186 L 472.9094110558314 390.02335023092263 L 472.6317815652197 390.97320858665165 L 472.3489341776156 391.9215262472122 L 472.06087744224754 392.8682745491462 L 471.7676200657995 393.81342487642985 L 471.4691709121481 394.7569486613395 L 471.1655390020941 395.69881738531467 L 470.8567335130904 396.6390025798199 L 470.5427637789643 397.5774758272054 L 470.22363928963534 398.5142087615662 L 469.89936969082873 399.44917306959906 L 469.56996478378346 400.3823404914587 L 469.2354345249565 401.3136828216116 L 468.89578902572123 402.24317190968895 L 468.55103855206244 403.17077966133706 L 468.2011935242656 404.09647803906677 L 467.8462645166023 405.020239063101 L 467.48626225701014 405.94203481222013 L 467.1211976267689 406.8618374246063 L 466.7510816601714 407.7796190986853 L 466.37592554419024 408.69535209396696 L 465.9957406181393 409.6090087318836 L 465.6105383733312 410.5205613966268 L 465.2203304527302 411.4299825359818 L 464.8251286505997 412.33724466216063 L 464.42494491214643 413.24232035263253 L 464.0197913331588 414.14518225095316 L 463.6096801596419 415.04580306759135 L 463.19462378744663 415.94415558075406 L 462.77463476189575 416.8402126372089 L 462.34972577740416 417.7339471531049 L 461.91990967709546 418.6253321147915 L 461.48519945241384 419.5143405796347 L 461.0456082427311 420.40094567683144 L 460.60114933494975 421.285120608222 L 460.15183616310134 422.1668386490996 L 459.69768230794034 423.04607314901875 L 459.23870149653385 423.92279753260016 L 458.7749076018465 424.7969853003344 L 458.306314642321 425.6686100293829 L 457.8329367814549 426.5376453743761 L 457.3547883273721 427.40406506821034 L 456.8718837323904 428.26784292284145 L 456.3842375925848 429.1289528300765 L 455.89186464734644 429.98736876236273 L 455.3947797789366 430.8430647735744 L 454.8929980120374 431.696014999797" stroke-opacity="1" stroke-linecap="round" stroke-linejoin="round" stroke-miterlimit="10" stroke-width="10" stroke-dasharray=""/><path fill="none" stroke="rgb(0,0,0)" paint-order="fill stroke markers" d=" M 230.1737630503832 505.9044804502155 L 229.26271539501565 505.51808531611704 L 228.3538058156226 505.12668730067355 L 227.4470617845298 504.73029823412 L 226.5425107086083 504.3289300975486 L 225.6401799284455 503.92259502254717 L 224.74009671751932 503.51130529083184 L 223.8422882813735 503.0950733338765 L 222.94678175679525 502.67391173253634 L 222.05360421099527 502.2478332166682 L 221.16278264078952 501.8168506647455 L 220.27434397178322 501.3809771034691 L 219.38831505755684 500.9402257073732 L 218.5047226788548 500.49460979842775 L 217.62359354277567 500.0441428456353 L 216.7449542819652 499.58883846462413 L 215.86883145381108 499.12871041723645 L 214.99525153964032 498.6637726111129 L 214.12424094391895 498.19403909927155 L 213.25582599345384 497.7195240796839 L 212.39003293659698 497.24024189484504 L 211.52688794245188 496.75620703134047 L 210.666417100083 496.2674341194083 L 209.80864641772703 495.7739379324968 L 208.95360182200665 495.27573338681816 L 208.10130915714686 494.7728355408973 L 207.25179418419413 494.2652595951171 L 206.4050825802374 493.7530208912585 L 205.5611999376324 493.2361349120373 L 204.72017176322743 492.71461728063576 L 203.88202347759312 492.1884837602306 L 203.04678041425367 491.65775025351655 L 202.21446781892132 491.1224328022255 L 201.38511084873312 490.58254758664197 L 200.55873457149048 490.03811092511353 L 199.73536396490186 489.48913927355807 L 198.9150239158274 488.93564922496626 L 198.097739219527 488.3776575088999 L 197.28353457891046 487.8151809909864 L 196.4724346037914 487.2482366724088 L 195.66446381014293 486.676841689392 L 194.8596466193569 486.10101331268527 L 194.05800735750546 485.5207689470392 L 193.25957025460627 484.9361261306808 L 192.46435944388966 484.3471025347824 L 191.67239896106952 483.75371596292825 L 190.8837127436165 483.155984350576 L 190.09832463003482 482.5539257645146 L 189.3162583591415 481.94755840231846 L 188.53753756934887 481.3369005917974 L 187.7621857979503 480.72197079044236 L 186.99022648040835 480.10278758486766 L 186.22168294964683 479.47936969024937 L 185.45657843534542 478.8517359497596 L 184.69493606323744 478.2199053339968 L 183.93677885441082 477.5838969404123 L 183.1821297246126 476.9437299927335 L 182.43101148355595 476.29942384038236 L 181.68344683423084 475.6509979578907 L 180.93945837221798 474.99847194431175 L 180.19906858500548 474.3418655226275 L 179.46229985130958 473.68119853915255 L 178.72917444039797 473.01649096293477 L 177.99971451141693 472.347762885151 L 177.27394211272102 471.67503451850007 L 176.55187918120743 470.99832619659196 L 175.8335475416523 470.3176583733333 L 175.11896890605146 469.6330516223088 L 174.4081648729637 468.9445266361596 L 173.70115692685852 468.25210422595774 L 172.99796643746635 467.55580532057724 L 172.29861465913274 466.8556509660617 L 171.6031227301759 466.15166232498746 L 170.9115116722479 465.4438606758248 L 170.22380238969924 464.7322674122943 L 169.5400156689468 464.0169040427203 L 168.860172177846 463.2977921893808 L 168.18429246506548 462.5749535878539 L 167.51239695946663 461.8484100863609 L 166.84450596948577 461.118183645106 L 166.18063968252028 460.384296335612 L 165.52081816431857 459.6467703400541 L 164.86506135837368 458.90562795058867 L 164.21338908532016 458.1608915686797 L 163.5658210423353 457.41258370442176 L 162.92237680254345 456.6607269758596 L 162.28307581442468 455.9053441083043 L 161.6479374012269 455.14645793364684 L 161.01698076038173 454.38409138966756 L 160.39022496292412 453.618267519343 L 159.76768895291625 452.84900947014944 L 159.14939154687463 452.0763404933632 L 158.53535143320153 451.30028394335807 L 157.92558717162007 450.520863276899 L 157.3201171926131 449.7381020524333 L 156.71895979686647 448.9520239293789 L 156.1221331547155 448.16265266740874 L 155.529655305596 447.37001212573284 L 154.94154415749892 446.57412626237704 L 154.35781748642918 445.7750191334591 L 153.77849293586823 444.9727148924614 L 153.20358801624087 444.1672377895007 L 152.63312010438605 443.35861217059573 L 152.06710644303135 442.5468624769306 L 151.5055641402722 441.73201324411656 L 150.94851016905454 440.91408910145043 L 150.39596136666174 440.09311477116967 L 149.84793443420594 439.2691150677057 L 149.30444593612307 438.4421148969335 L 148.76551229967217 437.612139255419 L 148.23114981443902 436.77921322966347 L 147.70137463184346 435.9433619953451 L 147.17620276465166 435.10461081655853 L 146.65565008649176 434.26298504505075 L 146.13973233137412 433.41851011945494 L 145.62846509321594 432.57121156452183 L 145.1218638253698 431.72111499034787 L 144.61994384015657 430.8682460916013 L 144.12272030840262 430.01263064674555 L 143.63020825898124 429.15429451726 L 143.14242257835835 428.2932636468582" stroke-opacity="1" stroke-linecap="round" stroke-linejoin="round" stroke-miterlimit="10" stroke-width="10" stroke-dasharray=""/><path fill="none" stroke="rgb(0,0,0)" paint-order="fill stroke markers" d=" M 191.23562380326317 196.5764647258526 L 192.02577563297484 195.98067187929522 L 192.81919104703627 195.38923210151953 L 193.6158460640004 194.8021632691401 L 194.41571660450165 194.21948312665717 L 195.21877849198296 193.64120928592033 L 196.0250074534272 193.06735922559605 L 196.83437912009038 192.49795029063947 L 197.6468690282386 191.93299969177005 L 198.46245261988713 191.37252450495149 L 199.2811052435429 190.8165416708755 L 200.10280215494942 190.26506799444982 L 200.9275185178351 189.71812014429017 L 201.7552294046634 189.1757146522166 L 202.58590979738656 188.63786791275368 L 203.41953458820188 188.10459618263502 L 204.25607858031032 187.57591558031191 L 205.09551648867856 187.051842085466 L 205.93782294080268 186.53239153852653 L 206.78297247747543 186.01757964019137 L 207.6309395535556 185.50742195095256 L 208.4816985387405 185.0019338906258 L 209.33522371833988 184.5011307378847 L 210.19148929405395 184.00502762979863 L 211.05046938475272 183.51363956137553 L 211.91213802725855 183.02698138510823 L 212.77646917713054 182.545067810526 L 213.64343670945203 182.06791340374974 L 214.51301441962008 181.59553258705162 L 215.3851760241378 181.12793963841924 L 216.25989516140834 180.66514869112413 L 217.13714539253203 180.20717373329447 L 218.01690020210538 179.75402860749242 L 218.8991329990225 179.30572701029553 L 219.78381711727906 178.8622824918828 L 220.67092581677787 178.42370845562536 L 221.56043228413745 177.99001815768102 L 222.45230963350235 177.56122470659378 L 223.346530907356 177.13734106289746 L 224.243069077335 176.71838003872426 L 225.14189704504668 176.30435429741715 L 226.0429876428878 175.89527635314738 L 226.9463136348657 175.49115857053607 L 227.85184771742183 175.09201316428053 L 228.75956252025654 174.69785219878514 L 229.66943060715693 174.30868758779658 L 230.58142447682553 173.92453109404374 L 231.49551656371204 173.54539432888237 L 232.41167923884626 173.1712887519438 L 233.3298848106732 172.80222567078889 L 234.25010552589015 172.43821624056594 L 235.1723135702855 172.0792714636739 L 236.09648106957945 171.7254021894294 L 237.02258009026656 171.37661911373905 L 237.95058264045997 171.03293277877628 L 238.8804606707375 170.6943535726624 L 239.81218607498963 170.36089172915274 L 240.74573069126865 170.03255732732737 L 241.68106630264032 169.70936029128646 L 242.61816463803632 169.39131038985025 L 243.55699737310917 169.07841723626382 L 244.49753613108797 168.7706902879065 L 245.4397524836363 168.46813884600607 L 246.38361795171164 168.1707720553575 L 247.32910400642567 167.8785989040468 L 248.27618206990718 167.591628223179 L 249.22482351616537 167.30986868661148 L 250.1749996719554 167.03332881069176 L 251.12668181764482 166.76201695399996 L 252.07984118808187 166.49594131709637 L 253.03444897346475 166.23510994227334 L 253.99047632021237 165.9795307133124 L 254.9478943318367 165.72921135524587 L 255.90667406981606 165.4841594341233 L 256.8667865544697 165.24438235678303 L 257.8282027658338 165.009887370628 L 258.79089364453876 164.78068156340692 L 259.7548300926873 164.5567718629999 L 260.7199829747342 164.33816503720922 L 261.68632311836654 164.1248676935545 L 262.653821315386 163.91688627907328 L 263.62244832259137 163.71422708012597 L 264.59217486266243 163.51689622220587 L 265.56297162504484 163.32489966975407 L 266.5348092668364 163.13824322597915 L 267.5076584136734 162.95693253268175 L 268.4814896606192 162.78097307008406 L 269.4562735730522 162.61037015666417 L 270.43198068755623 162.44512894899538 L 271.4085815128106 162.2852544415902 L 272.38604653048185 162.13075146674956 L 273.36434619611566 161.98162469441658 L 274.3434509400299 161.83787863203557 L 275.3233311682089 161.6995176244157 L 276.303957263197 161.5665458535997 L 277.2852995849946 161.4389673387374 L 278.2673284719537 161.3167859359644 L 279.25001424167425 161.20000533828528 L 280.23332719190176 161.08862907546228 L 281.2172376014248 160.98266051390831 L 282.2017157309733 160.8821028565854 L 283.1867318241176 160.78695914290782 L 284.1722561081677 160.69723224865018 L 285.1582587950733 160.61292488586054 L 286.1447100823241 160.53403960277848 L 287.1315801538504 160.46057878375802 L 288.1188391809248 160.39254464919557 L 289.10645732306335 160.32993925546276 L 290.0944047289276 160.27276449484447 L 291.08265153722687 160.22102209548132 L 292.071167877621 160.17471362131778 L 293.059923871623 160.1338404720547 L 294.04888963350226 160.09840388310698 L 295.03803527118765 160.06840492556634 L 296.02733088717133 160.0438445061689 L 297.01674657941237 160.02472336726777 L 298.0062524422402 160.0110420868106 L 298.995818567259 160.0028010783221 L 299.9854150442514 160.00000059089166 L 300.9750119620826 160.00264070916558 L 301.96457940960465 160.01072135334476" stroke-opacity="1" stroke-linecap="round" stroke-linejoin="round" stroke-miterlimit="10" stroke-width="10" stroke-dasharray=""/><path fill="none" stroke="rgb(0,0,0)" paint-order="fill stroke markers" d=" M 520.4173248110584 258.3526981433961 A 60 60 0 1 1 520.4172948110609 258.29269815339603 Z" stroke-opacity="1" stroke-linecap="round" stroke-linejoin="round" stroke-miterlimit="10" stroke-width="10" stroke-dasharray=""/><path fill="none" stroke="rgb(0,0,0)" paint-order="fill stroke markers" d=" M 350.4999751527462 519.7491294218182 A 60 60 0 1 1 350.4999451527487 519.6891294318182 Z" stroke-opacity="1" stroke-linecap="round" stroke-linejoin="round" stroke-miterlimit="10" stroke-width="10" stroke-dasharray=""/><path fill="none" stroke="rgb(0,0,0)" paint-order="fill stroke markers" d=" M 209.08270003619543 241.89817243478575 A 60 60 0 1 1 209.08267003619792 241.83817244478573 Z" stroke-opacity="1" stroke-linecap="round" stroke-linejoin="round" stroke-miterlimit="10" stroke-width="10" stroke-dasharray=""/></g></svg>